<?xml version="1.0" encoding="UTF-8" standalone="no"?><!DOCTYPE svg PUBLIC "-//W3C//DTD SVG 1.1//EN" "http://www.w3.org/Graphics/SVG/1.1/DTD/svg11.dtd"><svg width="100%" height="100%" viewBox="0 0 2336 669" version="1.1" xmlns="http://www.w3.org/2000/svg" xmlns:xlink="http://www.w3.org/1999/xlink" xml:space="preserve" xmlns:serif="http://www.serif.com/" style="fill-rule:evenodd;clip-rule:evenodd;stroke-linejoin:round;stroke-miterlimit:2;"><g><g><g><g><path d="M374.647,336.618c72.934,-140.948 70.262,-287.401 -5.962,-326.843c-76.224,-39.442 -197.32,42.967 -270.253,183.915c54.105,-25.61 122.659,-33.657 177.751,-5.15c55.093,28.508 88.119,89.118 98.464,148.078Z" style="fill:#f15330;"/></g><g><path d="M569.917,474.421c-72.934,140.948 -194.031,223.357 -270.254,183.915c-76.224,-39.442 -78.895,-185.895 -5.962,-326.843c10.345,58.96 43.372,119.571 98.464,148.078c55.092,28.508 123.646,20.46 177.752,-5.15Z" style="fill:#0857cc;"/></g><g><path d="M336.942,293.661c-140.562,-73.676 -287.028,-71.776 -326.871,4.237c-39.843,76.015 41.926,197.544 182.488,271.221c-25.324,-54.241 -33.01,-122.836 -4.213,-177.777c28.798,-54.941 89.582,-87.647 148.596,-97.681Z" style="fill:#32810c;"/></g><g><path d="M475.75,99.118c140.561,73.676 222.33,195.206 182.487,271.22c-39.843,76.015 -186.308,77.913 -326.87,4.237c59.014,-10.034 119.798,-42.74 148.595,-97.681c28.798,-54.941 21.112,-123.536 -4.212,-177.776Z" style="fill:#d63978;"/></g><g><g><path d="M851.383,165.245c-13.279,-0 -24.292,3.826 -33.046,11.483c-8.754,7.656 -13.131,18.44 -13.131,32.36c-0,13.92 3.72,26.374 11.161,37.371c7.441,10.997 16.632,20.32 27.575,27.977c10.942,7.656 22.908,15.935 35.891,24.844c12.984,8.91 24.949,17.329 35.892,25.262c10.942,7.934 20.134,17.747 27.575,29.438c7.441,11.692 11.161,24.078 11.161,37.163c0,25.888 -11.09,47.81 -33.265,65.765c-22.175,17.955 -51.282,26.932 -87.321,26.932c-36.039,0 -64.561,-7.375 -85.571,-22.13c-21.009,-14.755 -31.514,-31.458 -31.514,-50.107c0,-18.65 5.838,-33.196 17.508,-43.635c11.671,-10.439 26.7,-15.658 45.083,-15.658c5.253,-0 10.215,0.558 14.882,1.67c-9.044,12.804 -13.569,26.656 -13.569,41.547c0,14.891 4.815,27.699 14.444,38.415c9.63,10.716 22.395,16.076 38.299,16.076c15.905,0 29.255,-3.967 40.05,-11.9c10.795,-7.934 16.195,-18.096 16.195,-30.482c-0,-12.386 -3.649,-23.315 -10.943,-32.778c-7.293,-9.463 -16.342,-17.606 -27.137,-24.427c-10.795,-6.822 -22.613,-14.615 -35.454,-23.383c-12.841,-8.769 -24.659,-17.606 -35.454,-26.515c-10.795,-8.909 -19.844,-20.252 -27.137,-34.031c-7.294,-13.779 -10.943,-28.879 -10.943,-45.305c0,-26.446 10.067,-47.533 30.202,-63.26c20.134,-15.726 47.271,-23.591 81.412,-23.591c34.141,-0 60.036,7.307 77.692,21.921c17.655,14.615 26.481,30.205 26.481,46.767c-0,16.561 -5.543,30.481 -16.633,41.755c-11.09,11.274 -26.115,16.911 -45.083,16.911c-6.418,0 -12.693,-0.558 -18.821,-1.67c14.296,-14.474 21.447,-29.715 21.447,-45.722c0,-16.008 -4.667,-28.185 -14.006,-36.537c-9.339,-8.351 -20.644,-12.526 -33.922,-12.526Z" style="fill:#3f3f3f;fill-rule:nonzero;"/></g><g><path d="M1289.76,232.471c17.218,0 29.545,5.079 36.986,15.241c7.44,10.162 11.161,23.941 11.161,41.338c-0,17.397 -2.845,41.824 -8.535,73.281c-5.69,31.458 -8.535,54.351 -8.535,68.688c-0,14.338 1.898,24.777 5.69,31.317c3.792,6.54 10.214,12.177 19.259,16.911c-3.792,0.277 -9.192,0.418 -16.195,0.418c-24.512,-0 -41.948,-3.618 -52.306,-10.857c-10.357,-7.239 -15.538,-19.902 -15.538,-37.998c0,-10.298 2.917,-30.413 8.754,-60.336c5.838,-29.924 8.754,-52.263 8.754,-67.018c0,-18.373 -5.837,-27.559 -17.508,-27.559c-6.713,0 -14.297,3.758 -22.76,11.274c-8.464,7.516 -16.633,17.746 -24.512,30.69c-7.878,12.945 -14.444,29.579 -19.696,49.898c-5.253,20.32 -7.879,40.572 -7.879,60.755c0,20.183 0.876,35.143 2.626,44.887c-9.339,0.558 -15.466,0.835 -18.383,0.835c-16.633,0 -28.598,-2.782 -35.891,-8.351c-7.294,-5.569 -10.943,-14.755 -10.943,-27.559c0,-5.568 3.064,-27 9.192,-64.303c6.128,-37.303 9.192,-67.018 9.192,-89.148c-0,-22.131 -2.479,-42.523 -7.441,-61.172c21.3,6.404 36.181,15.517 44.645,27.35c8.464,11.832 12.693,25.33 12.693,40.502c0,15.173 -1.75,32.779 -5.252,52.821c9.629,-31.176 24.802,-57.622 45.521,-79.335c20.719,-21.713 39.683,-32.57 56.901,-32.57Z" style="fill:#3f3f3f;fill-rule:nonzero;"/></g><g><path d="M1423.39,167.023c25.535,-12.795 49.674,-19.559 72.421,-20.289c40.246,-1.292 72.425,12.857 96.532,42.441c24.107,29.585 36.972,67.331 38.591,113.237c1.344,38.116 -6.355,72.341 -23.094,102.682c-18.665,33.746 -45.705,57.592 -81.125,71.54c-19.293,7.581 -39.73,11.72 -61.313,12.412c-21.582,0.693 -41.57,-1.032 -59.962,-5.178c-18.393,-4.146 -31.759,-8.449 -40.09,-12.918l-12.936,-6.687c0.211,-2.237 2.69,-23.065 7.431,-62.49c9.949,-82.207 13.748,-156.555 11.403,-223.049c-0.775,-21.978 -3.364,-37.494 -7.772,-46.544c31.481,6.787 51.451,18.403 59.914,34.843Zm-7.432,286.009c11.521,3.808 24.281,5.488 38.279,5.038c25.372,-0.814 47.042,-9.307 65.013,-25.483c17.97,-16.175 30.712,-35.662 38.229,-58.464c7.517,-22.802 10.829,-46.863 9.936,-72.179c-1.256,-35.613 -10.302,-64.428 -27.136,-86.448c-16.833,-22.021 -38.813,-32.596 -65.935,-31.725c-16.913,0.543 -31.698,3.524 -44.355,8.944c0.598,16.969 -1.761,59.8 -7.074,128.489c-5.314,68.688 -7.634,112.631 -6.957,131.828Z" style="fill:#3f3f3f;fill-rule:nonzero;"/></g><g><path d="M1719.51,274.244c0.023,4.175 -3.429,26.115 -10.361,65.818c-6.932,39.703 -10.396,72.431 -10.401,98.179c-0.006,25.748 1.765,42.374 5.308,49.872c-22.791,-5.454 -38.156,-13.797 -46.097,-25.031c-7.941,-11.234 -11.971,-27.708 -12.091,-49.42c-0.064,-11.692 2.155,-32.858 6.654,-63.503c4.498,-30.645 6.703,-54.458 6.609,-71.436c-0.093,-16.979 -1.041,-30.06 -2.842,-39.237c6.415,-0.59 12.398,-0.897 17.94,-0.925c16.923,-0.085 28.684,2.57 35.28,7.965c6.595,5.395 9.929,14.633 10.001,27.718Zm6.165,-72.687c-8.163,1.153 -15.31,1.747 -21.438,1.778c-30.054,0.151 -45.138,-9.795 -45.248,-29.837c-0.04,-7.239 2.094,-17.131 6.402,-29.679c8.162,-1.153 15.31,-1.747 21.438,-1.778c30.053,-0.151 45.137,9.795 45.248,29.837c0.04,7.239 -2.094,17.131 -6.402,29.679Z" style="fill:#3f3f3f;fill-rule:nonzero;"/></g><g><path d="M1790.51,404.306c0.358,13.08 3.203,23.661 8.531,31.741c5.327,8.081 12.659,12.007 21.995,11.775c13.712,-0.342 26.553,-8.321 38.533,-23.933c11.98,-15.613 21.359,-35.478 28.143,-59.597c6.783,-24.118 9.88,-46.96 9.29,-68.525c-0.59,-21.565 -1.943,-39.006 -4.059,-52.32c8.736,-0.776 14.854,-1.205 18.355,-1.292c14.876,-0.371 26.178,1.995 33.908,7.092c7.73,5.097 11.78,14.466 12.153,28.101c0.145,5.285 -2.768,26.869 -8.737,64.752c-5.969,37.882 -8.643,68.159 -8.022,90.84c0.62,22.681 5.693,42.672 15.214,59.978c-21.976,-3.071 -38.23,-10.394 -48.764,-21.968c-10.535,-11.573 -16.105,-28.488 -16.714,-50.751c-0.106,-3.898 0.273,-11.426 1.134,-22.584c-7.153,26.633 -20.572,48.27 -40.258,64.91c-19.685,16.64 -39.226,25.203 -58.625,25.686c-19.4,0.483 -35.193,-6.015 -47.384,-19.496c-12.191,-13.48 -18.632,-32.883 -19.325,-58.205c-0.693,-25.322 3.376,-49.999 12.204,-74.028c8.828,-24.028 22.496,-44.559 41.005,-61.587c18.509,-17.028 39.428,-25.835 62.766,-26.416c13.416,-0.334 27.212,2.387 41.381,8.159c-29.189,10.751 -52.131,31.023 -68.83,60.818c-16.699,29.795 -24.663,58.742 -23.894,86.85Z" style="fill:#3f3f3f;fill-rule:nonzero;"/></g><g><path d="M2031.34,347.489c7.205,-29.776 22.571,-72.197 46.829,-94.523c14.362,-13.222 35.77,-10.605 47.528,3.789c12.018,14.708 13.828,38.025 8.813,55.377c-5.022,17.381 -16.235,35.872 -36.884,22.984c-3.037,-1.9 -5.168,-5.13 -6.469,-8.369c-3.659,-9.103 -0.817,-21.043 -7.599,-28.337c-2.872,-3.088 -9.227,-5.218 -12.667,-2.713c-11.75,8.546 -16.573,23.71 -21.382,37.04c-5.869,16.27 -10.112,33.18 -12.395,50.248c-6.174,46.174 -3.826,59.89 0.819,100.065c-5.954,0.604 -11.903,1.519 -17.891,1.575c-7.186,0.066 -14.474,0.133 -21.522,-1.201c-44.764,-8.475 -22.351,-74.119 -20.631,-97.365c3.85,-51.98 10.665,-100.279 -5.069,-150.252c9.58,2.449 19.068,5.746 27.64,10.51c37.373,20.769 35.66,65.752 30.88,101.172Z" style="fill:#3f3f3f;fill-rule:nonzero;"/></g><g><path d="M2218.06,525.871c-10.12,-1.488 -20.259,-3.376 -29.78,-6.504c-58.467,-19.205 -17.853,-80.612 0.199,-110.254c-10.032,-33.143 -51.844,-143.842 -66.483,-163.28c12.092,-4.643 25.17,-8.234 38.495,-9.271c34.054,-2.655 38.1,35.462 41.709,52.136c6.446,35.151 8.097,70.799 15.141,105.851c51.74,-81.307 77.579,-135.608 77.512,-162.904c9.809,4.024 18.724,9.484 26.957,15.374c39.623,28.363 -19.373,75.844 -35.875,96.536c-42.674,53.506 -81.98,116.501 -67.875,182.316Z" style="fill:#3f3f3f;fill-rule:nonzero;"/></g><g><path d="M1163.39,254.771c-0.247,8.959 -4.956,20.943 -14.127,35.951c-9.17,15.008 -20.282,31.571 -33.332,49.685c-13.049,18.113 -18.471,26.778 -32.503,46.851c-14.545,20.808 -16.546,21.272 -26.549,40.218c-13.076,24.77 -16.167,51.166 -16.858,76.25c-0.318,11.517 0.397,22.547 2.153,33.094c-23.522,-4.432 -39.412,-10.531 -47.66,-18.292c-8.253,-7.765 -12.236,-16.764 -11.954,-27c0.388,-14.08 9.355,-41.642 33.831,-82.52c-3.938,-15.98 -10.831,-31.41 -14.587,-43.01c-10.696,-33.057 -17.814,-53.954 -25.586,-79.807c-7.478,-24.858 -12.867,-44.12 -20.989,-56.618c16.225,-6.253 29.153,-9.257 38.779,-9.016c9.626,0.241 16.864,2.344 21.719,6.307c4.854,3.964 8.801,11.684 11.841,23.156c3.039,11.473 5.186,20.939 6.442,28.399c3.408,24.674 5.765,55.53 7.547,75.682c1.781,20.152 3.166,33.441 4.155,39.867c54.355,-86.999 81.943,-145.342 82.761,-175.033c23.622,11.349 35.262,23.296 34.917,35.836Z" style="fill:#3f3f3f;fill-rule:nonzero;"/></g></g></g></g></g></svg>